<svg width="640" height="96" viewBox="0 0 640 96" fill="none" xmlns="http://www.w3.org/2000/svg">
<g clip-path="url(#clip0_154_1773)">
<path d="M68.2867 57.5788C68.2867 47.8916 62.4693 44.5695 50.8344 43.1808C42.5238 42.0712 40.8617 39.8587 40.8617 35.9851C40.8617 32.1115 43.6341 29.6199 49.1723 29.6199C54.1586 29.6199 56.9311 31.281 58.314 35.4336C58.5932 36.2642 59.4243 36.8156 60.2553 36.8156H64.6899C65.8002 36.8156 66.6312 35.9851 66.6312 34.8755V34.5965C65.5209 28.5037 60.5346 23.7996 54.1653 23.2481V16.6039C54.1653 15.4943 53.3342 14.6638 51.9514 14.3914H47.796C46.6857 14.3914 45.8547 15.2219 45.5821 16.6039V22.9691C37.2715 24.0787 32.0059 29.6133 32.0059 36.5366C32.0059 45.6724 37.5441 49.2736 49.1789 50.6556C56.9377 52.0376 59.4309 53.6986 59.4309 58.1303C59.4309 62.562 55.5548 65.6051 50.2892 65.6051C43.0889 65.6051 40.5957 62.562 39.7647 58.4094C39.4854 57.2998 38.6544 56.7483 37.8233 56.7483H33.1162C32.0059 56.7483 31.1748 57.5788 31.1748 58.6884V58.9675C32.2851 65.8908 36.713 70.8739 45.8547 72.2559V78.9002C45.8547 80.0097 46.6857 80.8403 48.0686 81.1127H52.2239C53.3342 81.1127 54.1653 80.2822 54.4379 78.9002V72.2559C62.7485 70.8673 68.2867 65.0536 68.2867 57.5788Z" fill="#63A4F0"/>
<path d="M35.8757 86.6473C14.268 78.8935 3.18501 54.8082 11.223 33.4935C15.3783 21.8661 24.52 13.0094 35.8757 8.85675C36.986 8.30528 37.5378 7.47475 37.5378 6.08611V2.21253C37.5378 1.10294 36.986 0.272413 35.8757 0C35.5964 0 35.0446 0 34.7654 0.279057C8.45062 8.58434 -5.95667 36.5432 2.35395 62.8477C7.34032 78.3487 19.2544 90.2551 34.7654 95.2383C35.8757 95.7898 36.9793 95.2383 37.2585 94.1287C37.5378 93.8497 37.5378 93.5773 37.5378 93.0191V89.1456C37.5378 88.3084 36.7067 87.2054 35.8757 86.6473ZM65.2421 0.272413C64.1318 -0.279057 63.0281 0.272413 62.7489 1.382C62.4696 1.66106 62.4696 1.93347 62.4696 2.49158V6.36517C62.4696 7.47475 63.3007 8.57769 64.1318 9.13581C85.7394 16.8896 96.8224 40.9749 88.7844 62.2896C84.6291 73.917 75.4874 82.7738 64.1318 86.9264C63.0215 87.4779 62.4696 88.3084 62.4696 89.697V93.5706C62.4696 94.6802 63.0215 95.5107 64.1318 95.7831C64.411 95.7831 64.9628 95.7831 65.2421 95.5041C91.5568 87.1988 105.964 59.2399 97.6535 32.9354C92.6671 17.162 80.4738 5.25558 65.2421 0.272413Z" fill="#63A4F0"/>
</g>
<path d="M153.696 83.2756V68.5876H166.752C170.016 68.5876 172.96 68.1076 175.584 67.1476C178.208 66.1236 180.448 64.7156 182.304 62.9236C184.16 61.0676 185.568 58.8596 186.528 56.2996C187.488 53.6756 187.968 50.7956 187.968 47.6596C187.968 44.3956 187.488 41.4836 186.528 38.9236C185.568 36.3636 184.16 34.1876 182.304 32.3956C180.448 30.6036 178.208 29.2596 175.584 28.3636C172.96 27.4036 170.016 26.9236 166.752 26.9236H153.696V12.2356H165.888C172.224 12.2356 177.76 13.1636 182.496 15.0196C187.232 16.8756 191.2 19.4036 194.4 22.6036C197.6 25.8036 199.968 29.4836 201.504 33.6436C203.104 37.7396 203.904 42.0596 203.904 46.6036V48.7156C203.904 52.9396 203.104 57.1316 201.504 61.2916C199.968 65.3876 197.6 69.0996 194.4 72.4276C191.2 75.6916 187.232 78.3156 182.496 80.2996C177.76 82.2836 172.224 83.2756 165.888 83.2756H153.696ZM139.872 83.2756V12.2356H155.616V83.2756H139.872ZM239.64 84.7156C235.032 84.7156 230.936 84.0116 227.352 82.6036C223.768 81.1316 220.728 79.1476 218.232 76.6516C215.8 74.1556 213.944 71.3076 212.664 68.1076C211.384 64.8436 210.744 61.4196 210.744 57.8356V55.6276C210.744 51.9796 211.384 48.5236 212.664 45.2596C214.008 41.9316 215.928 39.0196 218.424 36.5236C220.984 34.0276 224.056 32.0756 227.64 30.6676C231.224 29.1956 235.224 28.4596 239.64 28.4596C244.184 28.4596 248.216 29.1956 251.736 30.6676C255.32 32.0756 258.36 34.0276 260.856 36.5236C263.352 39.0196 265.272 41.9316 266.616 45.2596C267.96 48.5236 268.632 51.9796 268.632 55.6276V57.8356C268.632 61.4196 267.992 64.8436 266.712 68.1076C265.432 71.3076 263.544 74.1556 261.048 76.6516C258.616 79.1476 255.608 81.1316 252.024 82.6036C248.44 84.0116 244.312 84.7156 239.64 84.7156ZM239.64 71.7556C242.648 71.7556 245.144 71.1156 247.128 69.8356C249.112 68.5556 250.616 66.7636 251.64 64.4596C252.728 62.1556 253.272 59.5956 253.272 56.7796C253.272 53.7716 252.728 51.1476 251.64 48.9076C250.552 46.6036 248.984 44.7796 246.936 43.4356C244.952 42.0916 242.52 41.4196 239.64 41.4196C236.824 41.4196 234.392 42.0916 232.344 43.4356C230.296 44.7796 228.728 46.6036 227.64 48.9076C226.616 51.1476 226.104 53.7716 226.104 56.7796C226.104 59.5956 226.616 62.1556 227.64 64.4596C228.664 66.7636 230.2 68.5556 232.248 69.8356C234.296 71.1156 236.76 71.7556 239.64 71.7556ZM280.024 82.8916V12.8116H295.48V82.8916H280.024ZM273.784 24.1396V12.8116H295.48V24.1396H273.784ZM310.305 82.8916V12.8116H325.761V82.8916H310.305ZM304.065 24.1396V12.8116H325.761V24.1396H304.065ZM371.69 82.8916V67.3396H369.098V50.4436C369.098 47.7556 368.458 45.7396 367.178 44.3956C365.898 43.0516 363.85 42.3796 361.034 42.3796C359.626 42.3796 357.77 42.4116 355.466 42.4756C353.162 42.5396 350.794 42.6356 348.362 42.7636C345.93 42.8916 343.722 43.0196 341.738 43.1476V30.1876C343.21 30.0596 344.938 29.9316 346.922 29.8036C348.906 29.6756 350.954 29.5796 353.066 29.5156C355.178 29.4516 357.162 29.4196 359.018 29.4196C364.394 29.4196 368.906 30.1876 372.554 31.7236C376.266 33.2596 379.082 35.5956 381.002 38.7316C382.922 41.8036 383.882 45.7716 383.882 50.6356V82.8916H371.69ZM354.89 84.2356C351.114 84.2356 347.786 83.5636 344.906 82.2196C342.09 80.8756 339.882 78.9556 338.282 76.4596C336.682 73.8996 335.882 70.8596 335.882 67.3396C335.882 63.4996 336.874 60.3636 338.858 57.9316C340.842 55.4356 343.626 53.6116 347.21 52.4596C350.794 51.2436 354.922 50.6356 359.594 50.6356H370.826V59.1796H359.498C356.81 59.1796 354.73 59.8516 353.258 61.1956C351.85 62.4756 351.146 64.2356 351.146 66.4756C351.146 68.5876 351.85 70.3156 353.258 71.6596C354.73 72.9396 356.81 73.5796 359.498 73.5796C361.226 73.5796 362.762 73.2916 364.106 72.7156C365.514 72.0756 366.666 71.0196 367.562 69.5476C368.458 68.0756 368.97 66.0276 369.098 63.4036L372.746 67.2436C372.426 70.8916 371.53 73.9636 370.058 76.4596C368.65 78.9556 366.666 80.8756 364.106 82.2196C361.61 83.5636 358.538 84.2356 354.89 84.2356ZM396.914 82.8916V30.2836H409.106V52.8436H408.818C408.818 45.4196 410.386 39.6916 413.522 35.6596C416.722 31.6276 421.33 29.6116 427.346 29.6116H429.362V42.8596H425.522C421.298 42.8596 418.034 44.0116 415.73 46.3156C413.426 48.5556 412.274 51.8196 412.274 56.1076V82.8916H396.914ZM438.185 82.8916V12.8116H453.929V82.8916H438.185ZM452.009 82.8916V69.0676H481.385V82.8916H452.009ZM493.348 82.8916V30.2836H508.708V82.8916H493.348ZM486.34 41.6116V30.2836H508.708V41.6116H486.34ZM499.3 25.0996C496.42 25.0996 494.276 24.3636 492.868 22.8916C491.524 21.3556 490.852 19.4356 490.852 17.1316C490.852 14.7636 491.524 12.8436 492.868 11.3716C494.276 9.83557 496.42 9.06757 499.3 9.06757C502.18 9.06757 504.292 9.83557 505.636 11.3716C507.044 12.8436 507.748 14.7636 507.748 17.1316C507.748 19.4356 507.044 21.3556 505.636 22.8916C504.292 24.3636 502.18 25.0996 499.3 25.0996ZM522.914 82.8916V30.2836H535.106V52.8436H534.242C534.242 47.4676 534.914 42.9876 536.258 39.4036C537.666 35.8196 539.778 33.1316 542.594 31.3396C545.41 29.5476 548.834 28.6516 552.866 28.6516H553.538C559.682 28.6516 564.354 30.6676 567.554 34.6996C570.818 38.6676 572.45 44.7156 572.45 52.8436V82.8916H557.09V51.9796C557.09 49.1636 556.258 46.8596 554.594 45.0676C552.93 43.2756 550.69 42.3796 547.874 42.3796C544.994 42.3796 542.658 43.3076 540.866 45.1636C539.138 46.9556 538.274 49.3236 538.274 52.2676V82.8916H522.914ZM622.595 82.8916L605.987 58.3156H598.595L620.003 30.2836H636.131L615.971 56.3956L616.163 48.9076L639.875 82.8916H622.595ZM585.539 82.8916V12.8116H600.899V82.8916H585.539Z" fill="#052F46"/>
<defs>
<clipPath id="clip0_154_1773">
<rect width="100" height="95.7831" fill="white"/>
</clipPath>
</defs>
</svg>
