<svg width="217" height="217" viewBox="0 0 217 217" fill="none" xmlns="http://www.w3.org/2000/svg">
<g clip-path="url(#clip0_327_670)">
<rect x="48.5" y="48.5" width="120" height="120" rx="60" fill="#DBD2EF" fill-opacity="0.3"/>
<g filter="url(#filter0_d_327_670)">
<mask id="path-2-inside-1_327_670" fill="white">
<path d="M48.5 48.5H168.5V108.5H48.5V48.5Z"/>
</mask>
<path d="M168.5 107.5H48.5V109.5H168.5V107.5Z" fill="#DBD2EF" mask="url(#path-2-inside-1_327_670)"/>
<path d="M79.3289 80.716C78.6009 80.716 77.9809 80.596 77.4689 80.356C76.9569 80.116 76.5649 79.784 76.2929 79.36C76.0209 78.936 75.8849 78.456 75.8849 77.92H77.0609C77.0609 78.184 77.1289 78.448 77.2649 78.712C77.4089 78.976 77.6449 79.196 77.9729 79.372C78.3089 79.548 78.7609 79.636 79.3289 79.636C79.8569 79.636 80.2889 79.56 80.6249 79.408C80.9609 79.248 81.2089 79.044 81.3689 78.796C81.5289 78.54 81.6089 78.264 81.6089 77.968C81.6089 77.608 81.4529 77.312 81.1409 77.08C80.8289 76.84 80.3729 76.692 79.7729 76.636L78.8009 76.552C78.0249 76.488 77.4049 76.248 76.9409 75.832C76.4769 75.416 76.2449 74.868 76.2449 74.188C76.2449 73.652 76.3729 73.184 76.6289 72.784C76.8929 72.384 77.2569 72.072 77.7209 71.848C78.1849 71.616 78.7249 71.5 79.3409 71.5C79.9489 71.5 80.4849 71.612 80.9489 71.836C81.4129 72.06 81.7729 72.376 82.0289 72.784C82.2929 73.184 82.4249 73.664 82.4249 74.224H81.2489C81.2489 73.944 81.1809 73.68 81.0449 73.432C80.9169 73.184 80.7129 72.98 80.4329 72.82C80.1529 72.66 79.7889 72.58 79.3409 72.58C78.9089 72.58 78.5489 72.656 78.2609 72.808C77.9809 72.96 77.7689 73.16 77.6249 73.408C77.4889 73.648 77.4209 73.908 77.4209 74.188C77.4209 74.508 77.5449 74.792 77.7929 75.04C78.0409 75.288 78.4089 75.432 78.8969 75.472L79.8689 75.556C80.4689 75.604 80.9849 75.732 81.4169 75.94C81.8569 76.14 82.1929 76.412 82.4249 76.756C82.6649 77.092 82.7849 77.496 82.7849 77.968C82.7849 78.504 82.6409 78.98 82.3529 79.396C82.0649 79.812 81.6609 80.136 81.1409 80.368C80.6209 80.6 80.0169 80.716 79.3289 80.716ZM87.0863 80.572C86.6063 80.572 86.1903 80.504 85.8383 80.368C85.4943 80.232 85.2263 80 85.0343 79.672C84.8503 79.336 84.7583 78.884 84.7583 78.316V72.148H85.8623V78.46C85.8623 78.804 85.9543 79.072 86.1383 79.264C86.3303 79.448 86.5983 79.54 86.9423 79.54H88.0703V80.572H87.0863ZM83.6543 74.956V74.092H88.0703V74.956H83.6543ZM93.5523 80.5V78.58H93.3603V76.36C93.3603 75.92 93.2443 75.588 93.0123 75.364C92.7883 75.14 92.4563 75.028 92.0163 75.028C91.7683 75.028 91.5123 75.032 91.2483 75.04C90.9843 75.048 90.7323 75.056 90.4923 75.064C90.2523 75.072 90.0443 75.084 89.8683 75.1V74.092C90.0443 74.076 90.2283 74.064 90.4203 74.056C90.6203 74.04 90.8243 74.032 91.0323 74.032C91.2403 74.024 91.4403 74.02 91.6323 74.02C92.2883 74.02 92.8243 74.1 93.2403 74.26C93.6563 74.412 93.9643 74.664 94.1643 75.016C94.3643 75.368 94.4643 75.844 94.4643 76.444V80.5H93.5523ZM91.4523 80.668C90.9723 80.668 90.5563 80.588 90.2043 80.428C89.8603 80.26 89.5923 80.02 89.4003 79.708C89.2163 79.396 89.1243 79.02 89.1243 78.58C89.1243 78.124 89.2243 77.744 89.4243 77.44C89.6323 77.136 89.9323 76.908 90.3243 76.756C90.7163 76.596 91.1883 76.516 91.7403 76.516H93.4803V77.38H91.6923C91.2283 77.38 90.8723 77.492 90.6243 77.716C90.3763 77.94 90.2523 78.228 90.2523 78.58C90.2523 78.932 90.3763 79.216 90.6243 79.432C90.8723 79.648 91.2283 79.756 91.6923 79.756C91.9643 79.756 92.2243 79.708 92.4723 79.612C92.7203 79.508 92.9243 79.34 93.0843 79.108C93.2523 78.868 93.3443 78.54 93.3603 78.124L93.6723 78.58C93.6323 79.036 93.5203 79.42 93.3363 79.732C93.1603 80.036 92.9123 80.268 92.5923 80.428C92.2803 80.588 91.9003 80.668 91.4523 80.668ZM99.9626 80.716C99.4346 80.716 98.9626 80.6 98.5466 80.368C98.1386 80.136 97.8146 79.8 97.5746 79.36C97.3346 78.912 97.2026 78.376 97.1786 77.752H97.4906V80.5H96.5786V71.74H97.7306V76L97.3226 76.876C97.3546 76.18 97.4946 75.612 97.7426 75.172C97.9906 74.732 98.3146 74.408 98.7146 74.2C99.1226 73.984 99.5706 73.876 100.059 73.876C100.515 73.876 100.931 73.964 101.307 74.14C101.683 74.308 102.007 74.544 102.279 74.848C102.551 75.144 102.759 75.492 102.903 75.892C103.047 76.284 103.119 76.708 103.119 77.164V77.38C103.119 77.836 103.043 78.264 102.891 78.664C102.747 79.064 102.535 79.42 102.255 79.732C101.975 80.036 101.639 80.276 101.247 80.452C100.863 80.628 100.435 80.716 99.9626 80.716ZM99.8306 79.708C100.263 79.708 100.639 79.604 100.959 79.396C101.279 79.188 101.527 78.904 101.703 78.544C101.879 78.176 101.967 77.752 101.967 77.272C101.967 76.792 101.875 76.372 101.691 76.012C101.515 75.652 101.267 75.376 100.947 75.184C100.627 74.984 100.255 74.884 99.8306 74.884C99.4466 74.884 99.0906 74.972 98.7626 75.148C98.4346 75.316 98.1706 75.564 97.9706 75.892C97.7786 76.212 97.6826 76.6 97.6826 77.056V77.608C97.6826 78.048 97.7826 78.424 97.9826 78.736C98.1826 79.048 98.4466 79.288 98.7746 79.456C99.1026 79.624 99.4546 79.708 99.8306 79.708ZM104.924 80.5V71.74H106.076V80.5H104.924ZM104.036 72.652V71.74H106.076V72.652H104.036ZM111.01 80.716C110.45 80.716 109.966 80.62 109.558 80.428C109.15 80.236 108.818 79.984 108.562 79.672C108.306 79.352 108.114 78.996 107.986 78.604C107.866 78.212 107.806 77.812 107.806 77.404V77.188C107.806 76.772 107.866 76.368 107.986 75.976C108.114 75.584 108.306 75.232 108.562 74.92C108.818 74.6 109.142 74.348 109.534 74.164C109.934 73.972 110.402 73.876 110.938 73.876C111.634 73.876 112.206 74.028 112.654 74.332C113.11 74.628 113.446 75.012 113.662 75.484C113.886 75.956 113.998 76.46 113.998 76.996V77.512H108.31V76.648H113.158L112.894 77.116C112.894 76.66 112.822 76.268 112.678 75.94C112.534 75.604 112.318 75.344 112.03 75.16C111.742 74.976 111.378 74.884 110.938 74.884C110.482 74.884 110.102 74.988 109.798 75.196C109.502 75.404 109.278 75.688 109.126 76.048C108.982 76.408 108.91 76.824 108.91 77.296C108.91 77.752 108.982 78.164 109.126 78.532C109.278 78.892 109.51 79.18 109.822 79.396C110.134 79.604 110.53 79.708 111.01 79.708C111.514 79.708 111.922 79.596 112.234 79.372C112.554 79.148 112.746 78.888 112.81 78.592H113.89C113.802 79.032 113.626 79.412 113.362 79.732C113.098 80.052 112.766 80.296 112.366 80.464C111.966 80.632 111.514 80.716 111.01 80.716ZM117.596 80.5L120.752 71.74H122.744L125.996 80.5H124.784L121.844 72.508L122.42 72.796H121.004L121.616 72.508L118.772 80.5H117.596ZM119.48 77.884L119.876 76.828H123.656L124.052 77.884H119.48ZM128.538 77.452V76.42H130.494C130.91 76.42 131.254 76.34 131.526 76.18C131.798 76.012 132.002 75.788 132.138 75.508C132.282 75.228 132.354 74.916 132.354 74.572C132.354 74.22 132.282 73.904 132.138 73.624C132.002 73.344 131.798 73.124 131.526 72.964C131.254 72.804 130.91 72.724 130.494 72.724H128.538V71.692H130.278C130.998 71.692 131.598 71.808 132.078 72.04C132.566 72.264 132.934 72.584 133.182 73C133.43 73.416 133.554 73.908 133.554 74.476V74.668C133.554 75.228 133.43 75.72 133.182 76.144C132.934 76.56 132.566 76.884 132.078 77.116C131.598 77.34 130.998 77.452 130.278 77.452H128.538ZM127.602 80.5V71.692H128.778V80.5H127.602ZM136.935 77.092L134.151 71.74H135.375L137.727 76.324L137.271 76.192H138.687L138.207 76.324L140.415 71.74H141.567L138.951 77.092H136.935ZM137.367 80.5V76.852H138.519V80.5H137.367Z" fill="#8B63F0"/>
<path d="M83.3238 100.5V90.548L84.0278 91.092H81.0358V88.82H85.9318V100.5H83.3238ZM88.3116 100.5V98.1C88.3116 97.5987 88.3916 97.1613 88.5516 96.788C88.7222 96.4147 88.9889 96.084 89.3516 95.796C89.7142 95.4973 90.1942 95.22 90.7916 94.964L92.6796 94.148C93.1596 93.9453 93.5116 93.6947 93.7356 93.396C93.9702 93.0973 94.0876 92.7187 94.0876 92.26C94.0876 91.7907 93.9436 91.4067 93.6556 91.108C93.3676 90.8093 92.9462 90.66 92.3916 90.66C91.8369 90.66 91.4156 90.8147 91.1276 91.124C90.8396 91.4333 90.6956 91.8493 90.6956 92.372H88.1516C88.1516 91.636 88.3116 90.9747 88.6316 90.388C88.9516 89.7907 89.4262 89.3213 90.0556 88.98C90.6849 88.6387 91.4636 88.468 92.3916 88.468C93.3196 88.468 94.0929 88.6333 94.7116 88.964C95.3409 89.2947 95.8156 89.7373 96.1356 90.292C96.4662 90.8467 96.6316 91.4707 96.6316 92.164V92.356C96.6316 93.252 96.3862 93.9933 95.8956 94.58C95.4049 95.156 94.6476 95.668 93.6236 96.116L91.7516 96.932C91.4316 97.0707 91.2022 97.2147 91.0636 97.364C90.9356 97.5133 90.8716 97.716 90.8716 97.972V98.772L90.2476 98.244H96.6476V100.5H88.3116ZM98.2289 100.5V97.636H101.045V100.5H98.2289ZM106.796 100.804C105.889 100.804 105.1 100.639 104.428 100.308C103.767 99.9667 103.26 99.508 102.908 98.932C102.556 98.356 102.38 97.7053 102.38 96.98H104.908C104.908 97.4707 105.073 97.8707 105.404 98.18C105.735 98.4787 106.199 98.628 106.796 98.628C107.191 98.628 107.527 98.5533 107.804 98.404C108.081 98.2547 108.295 98.052 108.444 97.796C108.593 97.5293 108.668 97.2307 108.668 96.9C108.668 96.388 108.503 95.9667 108.172 95.636C107.852 95.3053 107.393 95.14 106.796 95.14C106.476 95.14 106.193 95.188 105.948 95.284C105.713 95.38 105.511 95.4973 105.34 95.636L104.156 93.636L107.692 91.332L107.548 91.06H102.86V88.82H110.732V91.252L106.652 93.844L105.372 93.492C105.585 93.428 105.809 93.38 106.044 93.348C106.289 93.3053 106.551 93.284 106.828 93.284C107.735 93.284 108.513 93.4333 109.164 93.732C109.815 94.0307 110.316 94.452 110.668 94.996C111.031 95.5293 111.212 96.1533 111.212 96.868V97.06C111.212 97.7747 111.031 98.4147 110.668 98.98C110.316 99.5453 109.809 99.9933 109.148 100.324C108.497 100.644 107.713 100.804 106.796 100.804ZM117.161 100.804C116.233 100.804 115.433 100.628 114.761 100.276C114.089 99.9133 113.572 99.428 113.209 98.82C112.857 98.212 112.681 97.54 112.681 96.804H115.209C115.209 97.1667 115.289 97.4867 115.449 97.764C115.62 98.0307 115.855 98.244 116.153 98.404C116.452 98.5533 116.793 98.628 117.177 98.628C117.604 98.628 117.961 98.5427 118.249 98.372C118.548 98.1907 118.777 97.9507 118.937 97.652C119.097 97.3427 119.177 96.996 119.177 96.612C119.177 96.2173 119.097 95.8707 118.937 95.572C118.788 95.2627 118.564 95.0173 118.265 94.836C117.977 94.6547 117.625 94.564 117.209 94.564C116.825 94.564 116.479 94.644 116.169 94.804C115.86 94.964 115.631 95.1667 115.481 95.412H113.017L113.609 88.82H120.697V91.06H114.649L115.657 90.388L115.305 94.18L114.697 94.02C115.017 93.636 115.401 93.316 115.849 93.06C116.308 92.7933 116.905 92.66 117.641 92.66C118.495 92.66 119.22 92.836 119.817 93.188C120.425 93.5293 120.889 93.9933 121.209 94.58C121.54 95.156 121.705 95.8013 121.705 96.516V96.724C121.705 97.4387 121.529 98.1053 121.177 98.724C120.825 99.3427 120.308 99.844 119.625 100.228C118.953 100.612 118.132 100.804 117.161 100.804ZM126.194 100.5L130.45 88.82H132.594L128.354 100.5H126.194ZM125.394 95.236C124.765 95.236 124.237 95.0973 123.81 94.82C123.394 94.532 123.08 94.1533 122.866 93.684C122.664 93.204 122.562 92.676 122.562 92.1V91.684C122.562 91.076 122.669 90.5373 122.882 90.068C123.096 89.5987 123.416 89.2307 123.842 88.964C124.269 88.6973 124.786 88.564 125.394 88.564C126.013 88.564 126.53 88.6973 126.946 88.964C127.373 89.2307 127.693 89.5987 127.906 90.068C128.12 90.5373 128.226 91.076 128.226 91.684V92.1C128.226 92.676 128.12 93.204 127.906 93.684C127.704 94.1533 127.394 94.532 126.978 94.82C126.562 95.0973 126.034 95.236 125.394 95.236ZM125.394 93.524C125.725 93.524 125.965 93.4067 126.114 93.172C126.274 92.9267 126.354 92.5053 126.354 91.908C126.354 91.2787 126.274 90.8467 126.114 90.612C125.954 90.3773 125.714 90.26 125.394 90.26C125.074 90.26 124.834 90.3773 124.674 90.612C124.514 90.8467 124.434 91.2733 124.434 91.892C124.434 92.4893 124.514 92.9107 124.674 93.156C124.834 93.4013 125.074 93.524 125.394 93.524ZM133.346 100.772C132.706 100.772 132.178 100.633 131.762 100.356C131.346 100.079 131.032 99.7053 130.818 99.236C130.616 98.756 130.514 98.228 130.514 97.652V97.236C130.514 96.6173 130.621 96.0733 130.834 95.604C131.048 95.1347 131.362 94.7667 131.778 94.5C132.205 94.2333 132.728 94.1 133.346 94.1C133.965 94.1 134.482 94.2333 134.898 94.5C135.314 94.7667 135.629 95.1347 135.842 95.604C136.056 96.0733 136.162 96.6173 136.162 97.236V97.652C136.162 98.228 136.056 98.756 135.842 99.236C135.64 99.7053 135.33 100.079 134.914 100.356C134.509 100.633 133.986 100.772 133.346 100.772ZM133.346 99.076C133.677 99.076 133.917 98.9587 134.066 98.724C134.226 98.4787 134.306 98.0573 134.306 97.46C134.306 96.82 134.226 96.388 134.066 96.164C133.906 95.9293 133.666 95.812 133.346 95.812C133.026 95.812 132.781 95.9293 132.61 96.164C132.45 96.388 132.37 96.8147 132.37 97.444C132.37 98.0413 132.45 98.4627 132.61 98.708C132.77 98.9533 133.016 99.076 133.346 99.076Z" fill="#8B63F0"/>
</g>
<g filter="url(#filter1_d_327_670)">
<path d="M73.3215 125.5L70.2855 116.74H71.4975L74.2215 124.732L73.6455 124.444H75.0855L74.4735 124.732L76.9815 116.74H78.1575L75.3375 125.5H73.3215ZM83.228 125.5V123.58H83.036V121.36C83.036 120.92 82.92 120.588 82.688 120.364C82.464 120.14 82.132 120.028 81.692 120.028C81.444 120.028 81.188 120.032 80.924 120.04C80.66 120.048 80.408 120.056 80.168 120.064C79.928 120.072 79.72 120.084 79.544 120.1V119.092C79.72 119.076 79.904 119.064 80.096 119.056C80.296 119.04 80.5 119.032 80.708 119.032C80.916 119.024 81.116 119.02 81.308 119.02C81.964 119.02 82.5 119.1 82.916 119.26C83.332 119.412 83.64 119.664 83.84 120.016C84.04 120.368 84.14 120.844 84.14 121.444V125.5H83.228ZM81.128 125.668C80.648 125.668 80.232 125.588 79.88 125.428C79.536 125.26 79.268 125.02 79.076 124.708C78.892 124.396 78.8 124.02 78.8 123.58C78.8 123.124 78.9 122.744 79.1 122.44C79.308 122.136 79.608 121.908 80 121.756C80.392 121.596 80.864 121.516 81.416 121.516H83.156V122.38H81.368C80.904 122.38 80.548 122.492 80.3 122.716C80.052 122.94 79.928 123.228 79.928 123.58C79.928 123.932 80.052 124.216 80.3 124.432C80.548 124.648 80.904 124.756 81.368 124.756C81.64 124.756 81.9 124.708 82.148 124.612C82.396 124.508 82.6 124.34 82.76 124.108C82.928 123.868 83.02 123.54 83.036 123.124L83.348 123.58C83.308 124.036 83.196 124.42 83.012 124.732C82.836 125.036 82.588 125.268 82.268 125.428C81.956 125.588 81.576 125.668 81.128 125.668ZM86.2544 125.5V119.092H87.1664V121.732H87.1184C87.1184 120.796 87.3224 120.112 87.7304 119.68C88.1464 119.24 88.7664 119.02 89.5904 119.02H89.8064V120.052H89.3984C88.7584 120.052 88.2664 120.224 87.9224 120.568C87.5784 120.904 87.4064 121.392 87.4064 122.032V125.5H86.2544ZM91.4883 125.5V119.092H92.6403V125.5H91.4883ZM90.5043 120.004V119.092H92.6403V120.004H90.5043ZM91.8123 118.06C91.5563 118.06 91.3643 117.992 91.2363 117.856C91.1163 117.72 91.0563 117.548 91.0563 117.34C91.0563 117.132 91.1163 116.96 91.2363 116.824C91.3643 116.688 91.5563 116.62 91.8123 116.62C92.0683 116.62 92.2563 116.688 92.3763 116.824C92.5043 116.96 92.5683 117.132 92.5683 117.34C92.5683 117.548 92.5043 117.72 92.3763 117.856C92.2563 117.992 92.0683 118.06 91.8123 118.06ZM98.7437 125.5V123.58H98.5517V121.36C98.5517 120.92 98.4357 120.588 98.2037 120.364C97.9797 120.14 97.6477 120.028 97.2077 120.028C96.9597 120.028 96.7037 120.032 96.4397 120.04C96.1757 120.048 95.9237 120.056 95.6837 120.064C95.4437 120.072 95.2357 120.084 95.0597 120.1V119.092C95.2357 119.076 95.4197 119.064 95.6117 119.056C95.8117 119.04 96.0157 119.032 96.2237 119.032C96.4317 119.024 96.6317 119.02 96.8237 119.02C97.4797 119.02 98.0157 119.1 98.4317 119.26C98.8477 119.412 99.1557 119.664 99.3557 120.016C99.5557 120.368 99.6557 120.844 99.6557 121.444V125.5H98.7437ZM96.6437 125.668C96.1637 125.668 95.7477 125.588 95.3957 125.428C95.0517 125.26 94.7837 125.02 94.5917 124.708C94.4077 124.396 94.3157 124.02 94.3157 123.58C94.3157 123.124 94.4157 122.744 94.6157 122.44C94.8237 122.136 95.1237 121.908 95.5157 121.756C95.9077 121.596 96.3797 121.516 96.9317 121.516H98.6717V122.38H96.8837C96.4197 122.38 96.0637 122.492 95.8157 122.716C95.5677 122.94 95.4437 123.228 95.4437 123.58C95.4437 123.932 95.5677 124.216 95.8157 124.432C96.0637 124.648 96.4197 124.756 96.8837 124.756C97.1557 124.756 97.4157 124.708 97.6637 124.612C97.9117 124.508 98.1157 124.34 98.2757 124.108C98.4437 123.868 98.5357 123.54 98.5517 123.124L98.8637 123.58C98.8237 124.036 98.7117 124.42 98.5277 124.732C98.3517 125.036 98.1037 125.268 97.7837 125.428C97.4717 125.588 97.0917 125.668 96.6437 125.668ZM105.154 125.716C104.626 125.716 104.154 125.6 103.738 125.368C103.33 125.136 103.006 124.8 102.766 124.36C102.526 123.912 102.394 123.376 102.37 122.752H102.682V125.5H101.77V116.74H102.922V121L102.514 121.876C102.546 121.18 102.686 120.612 102.934 120.172C103.182 119.732 103.506 119.408 103.906 119.2C104.314 118.984 104.762 118.876 105.25 118.876C105.706 118.876 106.122 118.964 106.498 119.14C106.874 119.308 107.198 119.544 107.47 119.848C107.742 120.144 107.95 120.492 108.094 120.892C108.238 121.284 108.31 121.708 108.31 122.164V122.38C108.31 122.836 108.234 123.264 108.082 123.664C107.938 124.064 107.726 124.42 107.446 124.732C107.166 125.036 106.83 125.276 106.438 125.452C106.054 125.628 105.626 125.716 105.154 125.716ZM105.022 124.708C105.454 124.708 105.83 124.604 106.15 124.396C106.47 124.188 106.718 123.904 106.894 123.544C107.07 123.176 107.158 122.752 107.158 122.272C107.158 121.792 107.066 121.372 106.882 121.012C106.706 120.652 106.458 120.376 106.138 120.184C105.818 119.984 105.446 119.884 105.022 119.884C104.638 119.884 104.282 119.972 103.954 120.148C103.626 120.316 103.362 120.564 103.162 120.892C102.97 121.212 102.874 121.6 102.874 122.056V122.608C102.874 123.048 102.974 123.424 103.174 123.736C103.374 124.048 103.638 124.288 103.966 124.456C104.294 124.624 104.646 124.708 105.022 124.708ZM110.115 125.5V116.74H111.267V125.5H110.115ZM109.227 117.652V116.74H111.267V117.652H109.227ZM116.201 125.716C115.641 125.716 115.157 125.62 114.749 125.428C114.341 125.236 114.009 124.984 113.753 124.672C113.497 124.352 113.305 123.996 113.177 123.604C113.057 123.212 112.997 122.812 112.997 122.404V122.188C112.997 121.772 113.057 121.368 113.177 120.976C113.305 120.584 113.497 120.232 113.753 119.92C114.009 119.6 114.333 119.348 114.725 119.164C115.125 118.972 115.593 118.876 116.129 118.876C116.825 118.876 117.397 119.028 117.845 119.332C118.301 119.628 118.637 120.012 118.853 120.484C119.077 120.956 119.189 121.46 119.189 121.996V122.512H113.501V121.648H118.349L118.085 122.116C118.085 121.66 118.013 121.268 117.869 120.94C117.725 120.604 117.509 120.344 117.221 120.16C116.933 119.976 116.569 119.884 116.129 119.884C115.673 119.884 115.293 119.988 114.989 120.196C114.693 120.404 114.469 120.688 114.317 121.048C114.173 121.408 114.101 121.824 114.101 122.296C114.101 122.752 114.173 123.164 114.317 123.532C114.469 123.892 114.701 124.18 115.013 124.396C115.325 124.604 115.721 124.708 116.201 124.708C116.705 124.708 117.113 124.596 117.425 124.372C117.745 124.148 117.937 123.888 118.001 123.592H119.081C118.993 124.032 118.817 124.412 118.553 124.732C118.289 125.052 117.957 125.296 117.557 125.464C117.157 125.632 116.705 125.716 116.201 125.716ZM122.787 125.5L125.943 116.74H127.935L131.187 125.5H129.975L127.035 117.508L127.611 117.796H126.195L126.807 117.508L123.963 125.5H122.787ZM124.671 122.884L125.067 121.828H128.847L129.243 122.884H124.671ZM133.729 122.452V121.42H135.685C136.101 121.42 136.445 121.34 136.717 121.18C136.989 121.012 137.193 120.788 137.329 120.508C137.473 120.228 137.545 119.916 137.545 119.572C137.545 119.22 137.473 118.904 137.329 118.624C137.193 118.344 136.989 118.124 136.717 117.964C136.445 117.804 136.101 117.724 135.685 117.724H133.729V116.692H135.469C136.189 116.692 136.789 116.808 137.269 117.04C137.757 117.264 138.125 117.584 138.373 118C138.621 118.416 138.745 118.908 138.745 119.476V119.668C138.745 120.228 138.621 120.72 138.373 121.144C138.125 121.56 137.757 121.884 137.269 122.116C136.789 122.34 136.189 122.452 135.469 122.452H133.729ZM132.793 125.5V116.692H133.969V125.5H132.793ZM142.126 122.092L139.342 116.74H140.566L142.918 121.324L142.462 121.192H143.878L143.398 121.324L145.606 116.74H146.758L144.142 122.092H142.126ZM142.558 125.5V121.852H143.71V125.5H142.558Z" fill="#C1A9FF"/>
<path d="M82.3707 145.5V135.548L83.0747 136.092H80.0827V133.82H84.9787V145.5H82.3707ZM92.5104 145.804C91.5824 145.804 90.7878 145.655 90.1264 145.356C89.4651 145.047 88.9264 144.631 88.5104 144.108C88.1051 143.585 87.8011 142.983 87.5984 142.3C87.4064 141.607 87.3104 140.876 87.3104 140.108V139.196C87.3104 138.129 87.4971 137.164 87.8704 136.3C88.2438 135.436 88.8144 134.748 89.5824 134.236C90.3504 133.724 91.3264 133.468 92.5104 133.468C93.6944 133.468 94.6651 133.724 95.4224 134.236C96.1904 134.748 96.7611 135.436 97.1344 136.3C97.5078 137.164 97.6944 138.129 97.6944 139.196V140.108C97.6944 140.876 97.5931 141.607 97.3904 142.3C97.1984 142.983 96.8944 143.585 96.4784 144.108C96.0731 144.631 95.5398 145.047 94.8784 145.356C94.2278 145.655 93.4384 145.804 92.5104 145.804ZM92.5104 143.388C93.3744 143.388 94.0144 143.089 94.4304 142.492C94.8571 141.884 95.0704 140.945 95.0704 139.676C95.0704 138.332 94.8518 137.367 94.4144 136.78C93.9878 136.183 93.3531 135.884 92.5104 135.884C91.6464 135.884 91.0011 136.183 90.5744 136.78C90.1478 137.367 89.9344 138.321 89.9344 139.644C89.9344 140.924 90.1424 141.868 90.5584 142.476C90.9851 143.084 91.6358 143.388 92.5104 143.388ZM99.3696 145.5V142.636H102.186V145.5H99.3696ZM103.937 145.5V143.1C103.937 142.599 104.017 142.161 104.177 141.788C104.347 141.415 104.614 141.084 104.977 140.796C105.339 140.497 105.819 140.22 106.417 139.964L108.305 139.148C108.785 138.945 109.137 138.695 109.361 138.396C109.595 138.097 109.713 137.719 109.713 137.26C109.713 136.791 109.569 136.407 109.281 136.108C108.993 135.809 108.571 135.66 108.017 135.66C107.462 135.66 107.041 135.815 106.753 136.124C106.465 136.433 106.321 136.849 106.321 137.372H103.777C103.777 136.636 103.937 135.975 104.257 135.388C104.577 134.791 105.051 134.321 105.681 133.98C106.31 133.639 107.089 133.468 108.017 133.468C108.945 133.468 109.718 133.633 110.337 133.964C110.966 134.295 111.441 134.737 111.761 135.292C112.091 135.847 112.257 136.471 112.257 137.164V137.356C112.257 138.252 112.011 138.993 111.521 139.58C111.03 140.156 110.273 140.668 109.249 141.116L107.377 141.932C107.057 142.071 106.827 142.215 106.689 142.364C106.561 142.513 106.497 142.716 106.497 142.972V143.772L105.873 143.244H112.273V145.5H103.937ZM118.046 145.804C117.139 145.804 116.35 145.639 115.678 145.308C115.017 144.967 114.51 144.508 114.158 143.932C113.806 143.356 113.63 142.705 113.63 141.98H116.158C116.158 142.471 116.323 142.871 116.654 143.18C116.985 143.479 117.449 143.628 118.046 143.628C118.441 143.628 118.777 143.553 119.054 143.404C119.331 143.255 119.545 143.052 119.694 142.796C119.843 142.529 119.918 142.231 119.918 141.9C119.918 141.388 119.753 140.967 119.422 140.636C119.102 140.305 118.643 140.14 118.046 140.14C117.726 140.14 117.443 140.188 117.198 140.284C116.963 140.38 116.761 140.497 116.59 140.636L115.406 138.636L118.942 136.332L118.798 136.06H114.11V133.82H121.982V136.252L117.902 138.844L116.622 138.492C116.835 138.428 117.059 138.38 117.294 138.348C117.539 138.305 117.801 138.284 118.078 138.284C118.985 138.284 119.763 138.433 120.414 138.732C121.065 139.031 121.566 139.452 121.918 139.996C122.281 140.529 122.462 141.153 122.462 141.868V142.06C122.462 142.775 122.281 143.415 121.918 143.98C121.566 144.545 121.059 144.993 120.398 145.324C119.747 145.644 118.963 145.804 118.046 145.804ZM127.147 145.5L131.403 133.82H133.547L129.307 145.5H127.147ZM126.347 140.236C125.718 140.236 125.19 140.097 124.763 139.82C124.347 139.532 124.033 139.153 123.819 138.684C123.617 138.204 123.515 137.676 123.515 137.1V136.684C123.515 136.076 123.622 135.537 123.835 135.068C124.049 134.599 124.369 134.231 124.795 133.964C125.222 133.697 125.739 133.564 126.347 133.564C126.966 133.564 127.483 133.697 127.899 133.964C128.326 134.231 128.646 134.599 128.859 135.068C129.073 135.537 129.179 136.076 129.179 136.684V137.1C129.179 137.676 129.073 138.204 128.859 138.684C128.657 139.153 128.347 139.532 127.931 139.82C127.515 140.097 126.987 140.236 126.347 140.236ZM126.347 138.524C126.678 138.524 126.918 138.407 127.067 138.172C127.227 137.927 127.307 137.505 127.307 136.908C127.307 136.279 127.227 135.847 127.067 135.612C126.907 135.377 126.667 135.26 126.347 135.26C126.027 135.26 125.787 135.377 125.627 135.612C125.467 135.847 125.387 136.273 125.387 136.892C125.387 137.489 125.467 137.911 125.627 138.156C125.787 138.401 126.027 138.524 126.347 138.524ZM134.299 145.772C133.659 145.772 133.131 145.633 132.715 145.356C132.299 145.079 131.985 144.705 131.771 144.236C131.569 143.756 131.467 143.228 131.467 142.652V142.236C131.467 141.617 131.574 141.073 131.787 140.604C132.001 140.135 132.315 139.767 132.731 139.5C133.158 139.233 133.681 139.1 134.299 139.1C134.918 139.1 135.435 139.233 135.851 139.5C136.267 139.767 136.582 140.135 136.795 140.604C137.009 141.073 137.115 141.617 137.115 142.236V142.652C137.115 143.228 137.009 143.756 136.795 144.236C136.593 144.705 136.283 145.079 135.867 145.356C135.462 145.633 134.939 145.772 134.299 145.772ZM134.299 144.076C134.63 144.076 134.87 143.959 135.019 143.724C135.179 143.479 135.259 143.057 135.259 142.46C135.259 141.82 135.179 141.388 135.019 141.164C134.859 140.929 134.619 140.812 134.299 140.812C133.979 140.812 133.734 140.929 133.563 141.164C133.403 141.388 133.323 141.815 133.323 142.444C133.323 143.041 133.403 143.463 133.563 143.708C133.723 143.953 133.969 144.076 134.299 144.076Z" fill="#C1A9FF"/>
</g>
</g>
<path d="M217 108.5C217 91.3776 212.948 74.4982 205.174 59.242C197.401 43.9858 186.127 30.786 172.275 20.7217C158.422 10.6573 142.385 4.01435 125.473 1.33581C108.562 -1.34272 91.2561 0.0192474 74.9716 5.31037C58.6873 10.6015 43.8863 19.6715 31.7789 31.7789C19.6715 43.8863 10.6015 58.6873 5.31037 74.9717C0.0192451 91.2561 -1.34272 108.562 1.33582 125.473C4.01436 142.385 10.6574 158.422 20.7217 172.275L33.8884 162.709C25.3337 150.934 19.6872 137.302 17.4104 122.927C15.1337 108.552 16.2914 93.8427 20.7888 80.0009C25.2863 66.1592 32.9958 53.5784 43.2871 43.2871C53.5783 32.9958 66.1592 25.2863 80.0009 20.7888C93.8426 16.2914 108.552 15.1337 122.927 17.4104C137.302 19.6872 150.934 25.3337 162.708 33.8884C174.483 42.4431 184.066 53.663 190.673 66.6307C197.28 79.5985 200.725 93.9459 200.725 108.5H217Z" fill="#8B63F0"/>
<path d="M20.7217 172.275C34.1882 190.81 53.1763 204.606 74.9652 211.688C96.754 218.769 120.225 218.771 142.015 211.694C163.806 204.617 182.796 190.824 196.266 172.291C209.736 153.759 216.994 131.438 217 108.527L200.725 108.523C200.72 127.997 194.551 146.97 183.101 162.723C171.652 178.475 155.51 190.199 136.988 196.215C118.466 202.23 98.5159 202.228 79.9954 196.209C61.4749 190.19 45.3349 178.463 33.8884 162.708L20.7217 172.275Z" fill="#C1A9FF"/>
<defs>
<filter id="filter0_d_327_670" x="28.5" y="28.5" width="160" height="100" filterUnits="userSpaceOnUse" color-interpolation-filters="sRGB">
<feFlood flood-opacity="0" result="BackgroundImageFix"/>
<feColorMatrix in="SourceAlpha" type="matrix" values="0 0 0 0 0 0 0 0 0 0 0 0 0 0 0 0 0 0 127 0" result="hardAlpha"/>
<feOffset/>
<feGaussianBlur stdDeviation="10"/>
<feComposite in2="hardAlpha" operator="out"/>
<feColorMatrix type="matrix" values="0 0 0 0 0.545039 0 0 0 0 0.389222 0 0 0 0 0.941667 0 0 0 1 0"/>
<feBlend mode="normal" in2="BackgroundImageFix" result="effect1_dropShadow_327_670"/>
<feBlend mode="normal" in="SourceGraphic" in2="effect1_dropShadow_327_670" result="shape"/>
</filter>
<filter id="filter1_d_327_670" x="28.5" y="88.5" width="160" height="100" filterUnits="userSpaceOnUse" color-interpolation-filters="sRGB">
<feFlood flood-opacity="0" result="BackgroundImageFix"/>
<feColorMatrix in="SourceAlpha" type="matrix" values="0 0 0 0 0 0 0 0 0 0 0 0 0 0 0 0 0 0 127 0" result="hardAlpha"/>
<feOffset/>
<feGaussianBlur stdDeviation="10"/>
<feComposite in2="hardAlpha" operator="out"/>
<feColorMatrix type="matrix" values="0 0 0 0 0.757577 0 0 0 0 0.662228 0 0 0 0 0.998333 0 0 0 1 0"/>
<feBlend mode="normal" in2="BackgroundImageFix" result="effect1_dropShadow_327_670"/>
<feBlend mode="normal" in="SourceGraphic" in2="effect1_dropShadow_327_670" result="shape"/>
</filter>
<clipPath id="clip0_327_670">
<rect x="48.5" y="48.5" width="120" height="120" rx="60" fill="white"/>
</clipPath>
</defs>
</svg>
